<svg xmlns="http://www.w3.org/2000/svg" viewBox="0 0 320 360" role="img" aria-labelledby="title">
  <title id="title">Stylized simulation portrait for Atiku Abubakar</title>
  <rect width="320" height="360" rx="34" fill="#e9f2ff"/>
  <circle cx="160" cy="140" r="73" fill="#d9a77f"/>
  <path d="M92 127c10-50 52-76 100-58 28 11 43 34 48 63-48-18-93-18-148-5Z" fill="#f7f7f7"/>
  <path d="M111 153h34M177 153h34" stroke="#152236" stroke-width="8" stroke-linecap="round"/>
  <path d="M128 195c18 13 44 13 62 0" fill="none" stroke="#6d3423" stroke-width="8" stroke-linecap="round"/>
  <path d="M66 340c15-76 61-118 134-118s113 42 134 118Z" fill="#1357a6"/>
  <path d="M118 238h84l-42 58Z" fill="#ffffff"/>
  <circle cx="160" cy="280" r="10" fill="#ffc107"/>
  <text x="160" y="326" text-anchor="middle" font-family="Arial, sans-serif" font-size="30" font-weight="800" fill="#ffffff">ADC</text>
</svg>
