<svg xmlns="http://www.w3.org/2000/svg" viewBox="0 0 320 360" role="img" aria-labelledby="title">
  <title id="title">Stylized simulation portrait for Bola Ahmed Tinubu</title>
  <rect width="320" height="360" rx="34" fill="#e8f5ed"/>
  <circle cx="160" cy="138" r="74" fill="#f3c8a2"/>
  <path d="M86 132c10-54 48-82 94-72 32 7 54 33 58 72-39-20-85-25-152 0Z" fill="#f4f7ef"/>
  <path d="M116 118h88" stroke="#1f2a22" stroke-width="10" stroke-linecap="round"/>
  <path d="M110 154h36M174 154h36" stroke="#1f2a22" stroke-width="8" stroke-linecap="round"/>
  <path d="M146 188c14 11 34 11 48 0" fill="none" stroke="#7a3d24" stroke-width="8" stroke-linecap="round"/>
  <path d="M70 340c14-72 58-112 130-112s114 40 130 112Z" fill="#008751"/>
  <path d="M117 240h86l-43 60Z" fill="#ffffff"/>
  <text x="160" y="326" text-anchor="middle" font-family="Arial, sans-serif" font-size="30" font-weight="800" fill="#ffffff">APC</text>
</svg>
