<svg xmlns="http://www.w3.org/2000/svg" viewBox="0 0 320 360" role="img" aria-labelledby="title">
  <title id="title">Stylized simulation portrait for Prince Adewole Adebayo</title>
  <rect width="320" height="360" rx="34" fill="#e9f2ff"/>
  <circle cx="160" cy="142" r="72" fill="#c48762"/>
  <path d="M90 133c7-56 45-86 92-77 36 7 59 36 65 75-54-17-102-18-157 2Z" fill="#252525"/>
  <path d="M111 154h34M177 154h34" stroke="#141414" stroke-width="8" stroke-linecap="round"/>
  <path d="M130 192c18 12 44 12 62 0" fill="none" stroke="#5e2e1e" stroke-width="8" stroke-linecap="round"/>
  <path d="M65 340c17-78 62-120 135-120s112 42 135 120Z" fill="#0062a3"/>
  <path d="M118 238h84l-42 60Z" fill="#ffffff"/>
  <circle cx="160" cy="282" r="10" fill="#ffc107"/>
  <text x="160" y="326" text-anchor="middle" font-family="Arial, sans-serif" font-size="30" font-weight="800" fill="#ffffff">SDP</text>
</svg>
